# xmcd CD database file
#
# Track frame offsets:
#	150
#	8999
#	22443
#	32347
#	52609
#	65971
#	79664
#	87839
#	108378
#	121442
#	135670
#	146885
#	160620
#	171637
#	191868
#	208050
#
# Disc length: 3145 seconds
#
# Revision: 0
# Processed by: cddbd v1.5.2PL0 Copyright (c) Steve Scherf et al.
# Submitted via: CDex 1.70beta2
#
DISCID=e70c4710
DTITLE=Various Artist - Dinner for Two
DYEAR=2012
DGENRE=Jazz
TTITLE0=Aphex Twin - Avril 14th
TTITLE1=Sprout House Band - Spanish Flowers
TTITLE2=Nat King cole - Aquellos Ojos Verdes
TTITLE3=Krystle Warren - And You from Me
TTITLE4=Luiz Bonfá - Manha de Carnaval (Morning of the Carnival)
TTITLE5=Yuna - Someone Out of Town
TTITLE6=Eleni Karaindrou - By the Sea
TTITLE7=A Girl Called Eddy - Heartache
TTITLE8=Ben E. King - Spanish Harlem
TTITLE9=Dinah Washington - A Stranger on Earth
TTITLE10=Shigeru Umebayashi - Yumeji's Theme
TTITLE11=Django Reinhardt and the Quintet of the Hot Club of France - Blues Clair
TTITLE12=Gertzrud Hiuber - The Café Mozart Waltz
TTITLE13=Cowboy Junkies - Blue Moon Revisited (Song for Elvis)
TTITLE14=Nina Simone - Here Comes the Sun
TTITLE15=Alexi Murdoch - Orange Sky
EXTD=YEAR: 2012
EXTT0=
EXTT1=
EXTT2=
EXTT3=
EXTT4=
EXTT5=
EXTT6=
EXTT7=
EXTT8=
EXTT9=
EXTT10=
EXTT11=
EXTT12=
EXTT13=
EXTT14=
EXTT15=
PLAYORDER=
